<svg width="104" height="16" viewBox="0 0 104 16" fill="none" xmlns="http://www.w3.org/2000/svg">
<path fill-rule="evenodd" clip-rule="evenodd" d="M6.90585 11.1845C7.06046 11.5469 7.00892 12.0129 6.93162 12.2977C6.80277 12.7896 6.46779 13.3074 5.4886 13.3074C4.56095 13.3074 3.99405 12.7638 3.99405 11.9612V10.5113H0V11.6505C0 14.9903 2.60258 16 5.4113 16C8.09118 16 10.3072 15.068 10.668 12.5825C10.8484 11.288 10.7195 10.4595 10.6422 10.123C10.2851 8.31417 8.25285 7.23903 6.5146 6.31945C5.24237 5.6464 4.12764 5.05668 3.94252 4.32362C3.86521 4.01294 3.89098 3.70227 3.91675 3.54693C4.01982 3.08091 4.35481 2.53722 5.28246 2.53722C6.15857 2.53722 6.67393 3.08091 6.67393 3.8835V4.81553H10.3845V3.75405C10.3845 0.491909 7.47275 0 5.35976 0C2.70565 0 0.566898 0.880259 0.154609 3.31392C0.0515362 3.98706 0.0257681 4.58252 0.180377 5.33333C0.562072 7.05909 2.44089 8.08736 4.13001 9.01181C5.40572 9.71 6.57322 10.349 6.90585 11.1845ZM55.221 11.1586C55.3756 11.521 55.3241 11.9871 55.2468 12.246C55.1179 12.7379 54.783 13.2298 53.8038 13.2298C52.8761 13.2298 52.335 12.6861 52.335 11.8835V10.4595H48.3925V11.5987C48.3925 14.8867 50.9693 15.8964 53.7522 15.8964C56.4063 15.8964 58.5966 14.9903 58.9574 12.5049C59.1378 11.2362 59.0089 10.3819 58.9316 10.0712C58.5759 8.28428 56.575 7.22536 54.8606 6.3181C53.5943 5.64796 52.4844 5.06056 52.3092 4.32362C52.2319 4.01294 52.2577 3.70227 52.2834 3.54693C52.3865 3.08091 52.6957 2.56311 53.6234 2.56311C54.4737 2.56311 54.9891 3.1068 54.9891 3.90939V4.81553H58.6739V3.77994C58.6739 0.569579 55.7879 0.0517799 53.7007 0.0517799C51.0981 0.0517799 48.9594 0.932039 48.5471 3.33981C48.444 3.98706 48.4182 4.58252 48.5728 5.33333C48.9552 7.06229 50.8235 8.09117 52.4959 9.01214C53.7535 9.70471 54.9003 10.3362 55.221 11.1586ZM85.8593 0.466019L86.0654 12.479L82.561 0.466019H77.0466V15.2233H80.7057L80.4995 2.82201L84.2359 15.2233H89.5441V0.466019H85.8593ZM19.2488 1.5534L17.1873 15.3786H13.1675L15.8989 0.466019H22.5213L25.2527 15.3786H21.2587L19.2488 1.5534ZM38.3687 15.3786L40.9455 1.5534L41.0486 15.3786H44.7592L44.4242 0.466019H38.3687L36.4876 12.1165L34.6065 0.466019H28.551L28.2418 15.3786H31.9524L32.0555 1.5534L34.6065 15.3786H38.3687ZM67.6928 13.1521C68.7235 13.1521 69.0585 12.4272 69.11 12.0647C69.1358 11.9094 69.1358 11.6764 69.1358 11.4951V0.440129H72.8979V11.1586C72.8979 11.3224 72.8894 11.5718 72.8822 11.7838L72.8821 11.7848C72.8768 11.9409 72.8722 12.0765 72.8722 12.1424C72.6145 14.9385 70.4242 15.8447 67.6928 15.8447C64.9613 15.8447 62.7711 14.9385 62.5134 12.1424C62.4876 11.9871 62.4618 11.4434 62.4876 11.1586V0.440129H66.2498V11.4951C66.2498 11.6764 66.2498 11.9094 66.2755 12.0647C66.3528 12.4531 66.662 13.1521 67.6928 13.1521ZM100.238 11.9094C100.161 12.2977 99.7998 12.9968 98.7175 12.9968C97.6353 12.9968 97.2488 12.3236 97.1457 11.9094C97.1199 11.7282 97.1199 11.521 97.1199 11.3398V4.50485C97.1199 4.27184 97.1199 4.01295 97.1715 3.80583C97.2488 3.44337 97.558 2.71845 98.6402 2.71845C99.774 2.71845 100.057 3.46926 100.135 3.80583C100.186 4.01295 100.186 4.3754 100.186 4.3754V5.20388H103.948V4.71197C103.948 4.71197 103.974 4.19417 103.923 3.72816C103.665 0.932039 101.346 0.0517799 98.7175 0.0517799C96.0634 0.0517799 93.8216 0.932039 93.4866 3.72816C93.4608 3.98706 93.4351 4.45307 93.4351 4.71197V11.0032C93.4351 11.288 93.4351 11.4951 93.4866 11.9871C93.7443 14.7055 96.0892 15.6634 98.7175 15.6634C101.346 15.6634 103.691 14.7055 103.948 11.9871C104 11.4951 104 11.288 104 11.0032V6.99029H98.7433V9.16505H100.264V11.3398C100.289 11.521 100.264 11.7282 100.238 11.9094Z" fill="black"/>
</svg>
